<svg xmlns="http://www.w3.org/2000/svg" xmlns:xlink="http://www.w3.org/1999/xlink" width="32" height="32" viewBox="0 0 32 32">
    <defs>
        <path id="a" d="M0 0h16v16H0z"/>
    </defs>
    <g fill="none" fill-rule="evenodd">
        <g transform="translate(8 8)">
            <mask id="b" fill="#fff">
                <use xlink:href="#a"/>
            </mask>
            <path fill="#0065A1" d="M14.816 0H1.18C.529 0 0 .516 0 1.154v13.691C0 15.483.529 16 1.18 16h13.636c.652 0 1.184-.517 1.184-1.155V1.154C16 .516 15.468 0 14.816 0" mask="url(#b)"/>
        </g>
        <path fill="#FEFEFE" d="M11.559 10.203a1.376 1.376 0 1 1-.002 2.753 1.376 1.376 0 0 1 .002-2.753zm-1.188 11.43h2.375v-7.635h-2.375v7.636zM14.235 13.998h2.274v1.044h.033c.316-.6 1.091-1.233 2.245-1.233 2.403 0 2.847 1.58 2.847 3.637v4.188H19.26V17.92c0-.885-.015-2.024-1.233-2.024-1.235 0-1.423.965-1.423 1.961v3.777h-2.37v-7.636z"/>
    </g>
</svg>
