<svg xmlns="http://www.w3.org/2000/svg" width="40" height="40" viewBox="0 0 40 40">
    <defs>
        <linearGradient id="a" x1="99.993%" x2="-.01%" y1="49.995%" y2="49.995%">
            <stop offset="0%" stop-color="#991C1F"/>
            <stop offset="65.55%" stop-color="#CC2027"/>
        </linearGradient>
        <linearGradient id="b" x1="44.633%" x2="94.613%" y1="69.633%" y2="2.781%">
            <stop offset="12.62%" stop-color="#EA5C24"/>
            <stop offset="69.98%" stop-color="#F8951D"/>
        </linearGradient>
        <linearGradient id="c" x1=".02%" x2="99.979%" y1="49.984%" y2="49.984%">
            <stop offset="0%" stop-color="#F6B319"/>
            <stop offset="100%" stop-color="#FCB116"/>
        </linearGradient>
        <linearGradient id="d" x1="42.593%" x2="92.816%" y1="84.45%" y2="10.882%">
            <stop offset="0%" stop-color="#2083A6"/>
            <stop offset="100%" stop-color="#DCF2FD"/>
        </linearGradient>
        <linearGradient id="e" x1="58.989%" x2="44.898%" y1="10.449%" y2="97.598%">
            <stop offset="25.73%" stop-color="#A4C1D0"/>
            <stop offset="100%" stop-color="#256984"/>
        </linearGradient>
        <linearGradient id="f" x1="99.985%" x2="-.005%" y1="49.995%" y2="49.995%">
            <stop offset="0%" stop-color="#90211E"/>
            <stop offset="100%" stop-color="#951B1E"/>
        </linearGradient>
        <linearGradient id="g" x1="59.532%" x2="44.633%" y1="89.728%" y2="14.61%">
            <stop offset="0%" stop-color="#DF4326"/>
            <stop offset="100%" stop-color="#D57C27"/>
        </linearGradient>
        <linearGradient id="h" x1="55.326%" x2="43.601%" y1="81.036%" y2="12.719%">
            <stop offset="0%" stop-color="#DF5E25"/>
            <stop offset="83.47%" stop-color="#FCB116"/>
        </linearGradient>
    </defs>
    <g fill="none" fill-rule="evenodd">
        <path fill="url(#a)" d="M3.209 11.971L0 14.692l15.969 5.09z" transform="translate(10 7)"/>
        <path fill="url(#b)" d="M15.969 19.782l.929-12.794L6.493 9.2 3.21 11.97z" transform="translate(10 7)"/>
        <path fill="url(#c)" d="M3.218 11.971l3.28-2.77-5.836 1.211z" transform="translate(10 7)"/>
        <path fill="url(#d)" d="M17.404 0l-.51 6.992L6.497 9.205z" transform="translate(10 7)"/>
        <path fill="url(#e)" d="M17.404 0l-.51 6.988-1.543.33z" transform="translate(10 7)"/>
        <path fill="url(#f)" d="M3.209 11.971l-.742.628 13.502 7.183z" transform="translate(10 7)"/>
        <path fill="url(#g)" d="M15.351 7.322L12.49 17.649l3.475 2.133.93-12.794z" transform="translate(10 7)"/>
        <path fill="url(#h)" d="M16.893 6.988l3.085-.664-4.01 13.458.925-12.79" transform="translate(10 7)"/>
        <g fill="#303030">
            <path d="M8.16 31.057v.573H6.904v1.057h.929v.573h-.93v1.243h1.259v.573H6.252V31.04h1.909zM11.37 31.63v3.454h-.659V31.63h-.819v-.573h2.288v.573z"/>
            <path fill-rule="nonzero" d="M15.49 34.213h-.903l-.169.88h-.633l.81-4.036h.896l.853 4.035h-.668l-.185-.88zm-.11-.582l-.345-1.808-.338 1.808h.684zM25.886 32.34v1.469c0 .226-.017.412-.06.565a1.08 1.08 0 0 1-.185.396c-.194.258-.498.387-.912.387-.414 0-.718-.13-.912-.387a1.14 1.14 0 0 1-.203-.46 2.983 2.983 0 0 1-.042-.493v-1.469c0-.226.017-.412.06-.565a1.08 1.08 0 0 1 .185-.396c.194-.258.498-.387.912-.387.414 0 .71.13.912.387.101.138.169.291.203.46.025.146.042.315.042.493zm-1.655.008v1.445c0 .194.008.323.025.395.06.25.22.372.473.372.194 0 .33-.073.414-.218a.703.703 0 0 0 .076-.259c.008-.08.008-.177.008-.29v-1.445c0-.194-.008-.33-.025-.396-.06-.25-.211-.37-.473-.37-.194 0-.338.072-.414.217a.66.66 0 0 0-.076.258c0 .081-.008.178-.008.291zM28.698 33.43v1.654h-.659v-4.036h1.03c.363 0 .642.081.836.243.254.21.38.516.38.912 0 .508-.185.863-.565 1.05l.624 1.831h-.684l-.557-1.654h-.405zm0-.573h.236c.178 0 .304-.017.38-.049.194-.08.287-.266.287-.565 0-.218-.05-.38-.16-.484a.38.38 0 0 0-.228-.113 2.75 2.75 0 0 0-.287-.016h-.237v1.227h.009zM33.038 33.454v1.638h-.658v-4.035h1.089c.405 0 .7.088.887.258.22.202.337.516.337.936 0 .42-.11.735-.337.937-.102.088-.22.153-.355.201-.144.04-.313.065-.532.065h-.43zm0-.573h.287c.245 0 .414-.04.507-.113.127-.089.186-.259.186-.517s-.06-.428-.186-.516c-.093-.073-.262-.113-.507-.113h-.287v1.259z"/>
            <path d="M38.274 33.309h-.93v1.775h-.658v-4.036h.659v1.68h.929v-1.68h.658v4.036h-.658zM4.065 31.097v4.02H3.45v-2.341l-.92 2.34-.904-2.308v2.309H1v-4.02h.616l.92 2.518.93-2.518zM21.503 31.089v4.028h-.616v-2.341l-.92 2.34-.904-2.316v2.317h-.625v-4.028h.616l.92 2.526.93-2.526z"/>
        </g>
    </g>
</svg>
