<svg xmlns="http://www.w3.org/2000/svg" width="32" height="32" viewBox="0 0 32 32">
    <path fill="#9A9A9A" fill-rule="evenodd" d="M13.095 23.368c0 .396-.207.632-.501.632a.76.76 0 0 1-.342-.092l-4.745-2.453c-.28-.144-.507-.526-.507-.847V8.583c0-.317.165-.505.401-.505.084 0 .177.023.274.073l.167.087h.002l5.23 2.703c.008.005.014.014.021.02v12.407zm5.48-14.531l.32-.537a.626.626 0 0 1 .685-.28.512.512 0 0 1 .117.044l5.516 2.85.001.003.005.001c.004.002.004.007.007.01.027.022.04.06.02.091l-5.493 9.23-.56.94-3.64-7.276 3.022-5.076zm-4.609 9.654v-5.797l3.91 7.82-3.517-1.818-.393-.205zm11.32 4.877c0 .372-.216.583-.534.583a1.06 1.06 0 0 1-.478-.13l-.788-.408-3.517-1.818 5.317-8.93v10.703z"/>
</svg>
