<svg xmlns="http://www.w3.org/2000/svg" width="32" height="32" viewBox="0 0 32 32">
    <g fill="none" fill-rule="evenodd">
        <g fill="#E01E5A">
            <path d="M11.406 18.09c0 .916-.748 1.665-1.664 1.665a1.669 1.669 0 0 1-1.665-1.665c0-.916.749-1.664 1.665-1.664h1.664v1.664zM12.245 18.09c0-.916.749-1.664 1.665-1.664s1.664.748 1.664 1.664v4.168c0 .916-.748 1.665-1.664 1.665a1.669 1.669 0 0 1-1.665-1.665V18.09z"/>
        </g>
        <g fill="#36C5F0">
            <path d="M13.91 11.406a1.669 1.669 0 0 1-1.665-1.664c0-.916.749-1.665 1.665-1.665s1.664.749 1.664 1.665v1.664H13.91zM13.91 12.245c.916 0 1.664.749 1.664 1.665s-.748 1.664-1.664 1.664H9.742a1.669 1.669 0 0 1-1.665-1.664c0-.916.749-1.665 1.665-1.665h4.168z"/>
        </g>
        <g fill="#2EB67D">
            <path d="M20.594 13.91c0-.916.748-1.665 1.664-1.665.916 0 1.665.749 1.665 1.665s-.749 1.664-1.665 1.664h-1.664V13.91zM19.755 13.91c0 .916-.749 1.664-1.665 1.664a1.669 1.669 0 0 1-1.664-1.664V9.742c0-.916.748-1.665 1.664-1.665.916 0 1.665.749 1.665 1.665v4.168z"/>
        </g>
        <g fill="#ECB22E">
            <path d="M18.09 20.594c.916 0 1.665.748 1.665 1.664 0 .916-.749 1.665-1.665 1.665a1.669 1.669 0 0 1-1.664-1.665v-1.664h1.664zM18.09 19.755a1.669 1.669 0 0 1-1.664-1.665c0-.916.748-1.664 1.664-1.664h4.168c.916 0 1.665.748 1.665 1.664 0 .916-.749 1.665-1.665 1.665H18.09z"/>
        </g>
    </g>
</svg>
