<svg xmlns="http://www.w3.org/2000/svg" xmlns:xlink="http://www.w3.org/1999/xlink" width="32" height="32" viewBox="0 0 32 32">
    <defs>
        <path id="a" d="M0 0h19.973v15.937H0z"/>
    </defs>
    <g fill="none" fill-rule="evenodd" transform="translate(6 8)">
        <mask id="b" fill="#fff">
            <use xlink:href="#a"/>
        </mask>
        <path fill="#38A1F3" d="M19.973 1.886a8.347 8.347 0 0 1-2.354.635A4.06 4.06 0 0 0 19.42.293a8.302 8.302 0 0 1-2.604.977A4.125 4.125 0 0 0 13.827 0c-2.263 0-4.098 1.802-4.098 4.024 0 .314.036.623.106.916A11.707 11.707 0 0 1 1.39.734 3.954 3.954 0 0 0 .835 2.76 4 4 0 0 0 2.66 6.108a4.12 4.12 0 0 1-1.857-.503v.05c0 1.95 1.411 3.576 3.286 3.947-.344.093-.704.14-1.079.14-.265 0-.521-.023-.771-.071a4.09 4.09 0 0 0 3.826 2.793 8.296 8.296 0 0 1-5.088 1.722c-.333 0-.656-.018-.976-.054a11.751 11.751 0 0 0 6.28 1.805c7.537 0 11.659-6.132 11.659-11.446 0-.177-.003-.35-.012-.524a8.116 8.116 0 0 0 2.046-2.08" mask="url(#b)"/>
    </g>
</svg>
